<?xml version="1.0" encoding="utf-8"?>
<!-- Generator: Adobe Illustrator 26.3.1, SVG Export Plug-In . SVG Version: 6.00 Build 0)  -->
<svg version="1.1" id="Layer_2_00000145042385686897778720000005152808655596984737_"
	 xmlns="http://www.w3.org/2000/svg" xmlns:xlink="http://www.w3.org/1999/xlink" x="0px" y="0px" viewBox="0 0 1013.2 205.1"
	 style="enable-background:new 0 0 1013.2 205.1;" xml:space="preserve">
<style type="text/css">
	.st0{fill-rule:evenodd;clip-rule:evenodd;fill:#FFFFFF;}
	.st1{fill:#FFFFFF;}
</style>
<g>
	<g>
		<polygon class="st0" points="62.1,8.4 93.1,8.4 124.2,8.4 155.2,8.4 139.7,35.3 108.6,35.3 77.6,35.3 62.1,62.2 93.1,62.2 
			124.2,62.2 108.6,89 77.6,89 46.6,89 31,115.9 15.5,89 31,62.2 46.6,35.3 62.1,8.4 		"/>
		<polygon class="st0" points="217.3,115.9 201.8,142.8 186.2,169.7 170.7,196.6 155.2,169.7 170.7,142.8 186.2,115.9 170.7,89 
			155.2,115.9 139.7,142.8 124.2,115.9 139.7,89 155.2,62.2 139.7,35.3 170.7,35.3 186.2,62.2 201.8,89 217.3,115.9 		"/>
		<polygon class="st0" points="46.6,196.6 31,169.7 15.5,142.8 0,115.9 31,115.9 46.6,142.8 62.1,169.7 93.1,169.7 77.6,142.8 
			62.1,115.9 93.1,115.9 108.6,142.8 124.2,169.7 155.2,169.7 139.7,196.6 108.6,196.6 77.6,196.6 46.6,196.6 		"/>
	</g>
	<g>
		<g>
			<path class="st1" d="M289.3,190.9v-88.6h-13.5V70.7h13.5V59.5c0-15.2,4.8-26.9,14.3-35.3c9.5-8.4,21.2-12.6,35.2-12.6
				c7.3,0,13.9,0.6,19.8,1.8L352.2,45c-3-0.6-6.1-0.9-9.5-0.9c-4.9,0-8.9,1.6-12,4.7c-3.1,3.1-4.6,6.7-4.6,10.7v11.3h22.7v31.6
				h-22.7v88.6H289.3z"/>
			<path class="st1" d="M391.3,59.6c-5.9,0-10.9-2.1-15-6.2c-4.2-4.2-6.2-9.2-6.2-15.2s2.1-11,6.2-15.2c4.2-4.2,9.2-6.2,15-6.2
				c5.9,0,11,2.1,15.2,6.2c4.2,4.2,6.2,9.2,6.2,15.2s-2.1,11-6.2,15.2C402.3,57.5,397.3,59.6,391.3,59.6z M409.8,190.9h-36.9V70.7
				h36.9V190.9z"/>
			<path class="st1" d="M439.9,190.9V70.7h34.6v17.2c3.4-5.9,7.9-10.6,13.5-14.2c5.6-3.6,12.2-5.4,19.9-5.4c12.4,0,22.4,4.3,29.9,13
				c7.5,8.7,11.3,20.7,11.3,36.1v73.5h-36.8v-71.1c0-4.8-1.4-8.9-4.2-12.1c-2.8-3.3-6.7-4.9-11.9-4.9c-6.2,0-11,1.9-14.4,5.7
				c-3.4,3.8-5.1,8.7-5.1,14.6v67.8H439.9z"/>
			<path class="st1" d="M637.2,158.2v32.8c-17.2-0.1-30.6-3.7-40.3-11c-9.7-7.3-14.5-19.1-14.5-35.4v-41.1h-15.2V70.7h15.2V48.8
				l36.8-13.1v35.1h17.6v32.6h-17.6v38c0,5.2,1.7,9.3,5.2,12.3C627.9,156.7,632.1,158.2,637.2,158.2z"/>
			<path class="st1" d="M715.3,193.4c-18.2,0-32.9-6-44.2-18c-11.3-12-16.9-27-16.9-45c0.1-17.9,5.7-32.7,16.7-44.5
				c11-11.8,24.8-17.7,41.4-17.7c16.3,0,29.5,5.7,39.5,17.2c10,11.5,15,25.6,15,42.4c0,4.5-0.4,9.1-1.2,13.9h-75
				c0.7,6,3.4,11.1,8,15.3c4.6,4.2,10.5,6.2,17.9,6.2c10.9,0,20-3,27.2-9.1l17.4,22.2C747.4,187.7,732.2,193.4,715.3,193.4z
				 M690.2,118.6h41c-0.2-5.9-1.7-11.1-4.6-15.4c-2.8-4.3-7.6-6.5-14.4-6.5c-6.8,0-12.1,2.2-15.8,6.5
				C692.7,107.7,690.7,112.8,690.2,118.6z"/>
			<path class="st1" d="M841.7,193.4c-16.2,0-30.5-5.6-43-16.8c-12.5-11.2-18.7-26.5-18.7-45.8c0-19.2,6.2-34.4,18.7-45.7
				c12.5-11.3,26.8-16.9,43-16.9c16.9,0,31.4,5.6,43.4,16.8l-21.6,26.5c-5.7-5.8-12.6-8.7-20.6-8.7c-7.5,0-13.7,2.7-18.6,8
				c-4.9,5.3-7.4,12-7.4,20s2.4,14.7,7.3,20.1c4.9,5.3,11.1,8,18.7,8c8,0,14.9-2.9,20.6-8.7l21.6,26.4
				C873.2,187.8,858.7,193.4,841.7,193.4z"/>
			<path class="st1" d="M904.1,190.9V14.1h36.8V86c3.2-5.3,7.4-9.5,12.6-12.8c5.2-3.3,11.4-4.9,18.7-4.9c12.9,0,23,4.5,30.2,13.6
				c7.2,9.1,10.9,20.9,10.9,35.5v73.5h-36.8v-71.1c0-4.8-1.4-8.9-4.2-12.1c-2.8-3.3-6.8-4.9-12-4.9c-6,0-10.8,1.9-14.3,5.6
				c-3.5,3.7-5.2,8.6-5.2,14.7v67.8H904.1z"/>
		</g>
	</g>
</g>
</svg>
